<svg xmlns="http://www.w3.org/2000/svg" viewBox="0 0 96 96" fill="none">
<defs><linearGradient id="bg" x1="12" y1="8" x2="82" y2="88" gradientUnits="userSpaceOnUse"><stop stop-color="#FFFDF7"/><stop offset="1" stop-color="#E9F5ED"/></linearGradient><linearGradient id="route" x1="13" y1="28" x2="82" y2="45" gradientUnits="userSpaceOnUse"><stop stop-color="#0D6F69"/><stop offset="1" stop-color="#D6A64B"/></linearGradient></defs>
<rect x="2" y="2" width="92" height="92" rx="26" fill="url(#bg)" stroke="#D6A64B" stroke-opacity=".28" stroke-width="2"/>
<circle cx="48" cy="51" r="26" stroke="#0D6F69" stroke-width="4"/>
<path d="M22 51h52M48 25c7 7 10.5 15.5 10.5 26S55 70 48 77c-7-7-10.5-15.5-10.5-26S41 32 48 25Z" stroke="#0D6F69" stroke-width="2.2" opacity=".78"/>
<path d="M15 42c16-13 32-18 48-13 8 2.6 13.9 8 19 15" stroke="url(#route)" stroke-width="2.8" stroke-linecap="round"/>
<path d="m75 18-8 17-10 5-2 6 6-2 5-10L81 23c1.5-3.2-2.2-6.1-6-5Z" fill="#D6A64B"/>
<path d="M66 29c3 0 6 1.1 8 3.1" stroke="#0D6F69" stroke-width="3" stroke-linecap="round"/>
<path d="M70 67h10l4 4v8H66v-8l4-4Z" stroke="#0D2940" stroke-width="3" stroke-linejoin="round"/>
<path d="M72 67v-3h6v3" stroke="#0D2940" stroke-width="3" stroke-linecap="round"/>
<path d="M69 80h12" stroke="#0D2940" stroke-width="2.5" stroke-linecap="round"/>
<text x="15" y="88" font-family="Arial, sans-serif" font-size="9" font-weight="800" fill="#0D2940">ASY</text>
</svg>
